<?xml version="1.0" encoding="utf-8"?>
<!-- Generator: Adobe Illustrator 23.0.1, SVG Export Plug-In . SVG Version: 6.00 Build 0)  -->
<svg version="1.1" id="Layer_1" xmlns="http://www.w3.org/2000/svg" xmlns:xlink="http://www.w3.org/1999/xlink" x="0px" y="0px"
	 viewBox="0 0 99 100" style="enable-background:new 0 0 99 100;" xml:space="preserve">
<style type="text/css">
	.st0{fill:#DADADA;}
</style>
<title>sendok</title>
<g>
	<path class="st0" d="M97,96.9H5.9c-3.2-0.1-5.7-2.8-5.6-6.1c0.1-3,2.5-5.4,5.6-5.6l36,2.6v-2.2c0-5.2,1-9.5,6.2-9.5
		c0.7,0,1.4,0.1,2,0.2l37.3,7.5C91.7,84.7,98,87.5,98,92v3.7C98.1,96.4,97.6,96.9,97,96.9z M5.8,87.4c-2,0.1-3.5,1.9-3.4,3.9
		c0.1,1.9,1.6,3.3,3.5,3.4H96V92c0-3.4-5.6-5.3-8.9-6.1l-37.3-7.5c-3.9-0.9-4.7,0.6-5.5,4.5C44,83.5,44,85.2,44,85.7V89
		c0,0.6-0.5,1.1-1.1,1.1h-0.1L5.8,87.4z"/>
	<path class="st0" d="M71.2,32.2c-6.5-0.1-12-4.7-13.4-11.1L7,23.8l0,0c-3.9,0-7-2.6-7-5.9S3.1,12,6.9,12l50.8,2.6
		C59,8,64.7,3.2,71.4,3.1l22.8,1.6c5.1,0,5.2,6.5-0.1,6.5l-21-0.2l0,0c-0.7,0-1.2,0.6-1.2,1.3s0.6,1.3,0.6,1.3L95,14.2
		c5.3,0,5.4,7.6,0,7.6l-22,0.1l0,0c-0.3,0-0.6,0.1-0.8,0.3c-0.2,0.2-0.4,0.6-0.4,0.9c0,0.7,0.5,1.3,1.2,1.3l21.8,0.3
		c4.2,0,4,6.2-0.2,6.2L71.2,32.2z M58.6,19c0.5,0,1,0.4,1.1,0.9c0.8,5.7,5.6,10.1,11.4,10.2l23.4-1.3c0,0,1.1,0.1,1.1-1.1
		s-1.3-1-1.3-1L73,26.6c-1.9-0.1-3.3-1.6-3.3-3.5l0,0c0-0.9,0.4-1.8,1-2.4s1.5-1,2.4-1L95,19.6c0,0,1.9,0.5,1.9-1.5S95,16.3,95,16.3
		l-22-0.5c-1.9,0-3.4-1.5-3.4-3.4S71.1,9,73,9l0,0l21.9,0.3c0,0,1.2-0.1,1.2-1.1s-1-1.2-1-1.2L71.4,5.3c-6,0.1-11,4.6-11.7,10.5
		c-0.1,0.5-0.5,0.9-1.1,0.9L6.9,14.1c-2.6,0-4.7,1.7-4.7,3.8s2.2,3.8,4.8,3.8L58.6,19L58.6,19z"/>
	<path class="st0" d="M18.2,39.6c9.4,0,15.3,5.7,17,11.4l55.9-2.5l0,0c3.9,0,7,2.7,7,5.9s-3.1,5.9-6.9,5.9l-55.9-2.5
		c-1.7,5.6-7.6,11.4-17,11.4c-11,0-18.1-8.2-18.1-14.8S7.2,39.6,18.2,39.6z M34.4,53.1c-0.5,0-1-0.3-1.1-0.8
		c-1.2-5.1-6.5-10.6-15.2-10.6c-10.3,0-15.9,7.6-15.9,12.6s5.6,12.6,16,12.6c8.7,0,14-5.5,15.2-10.6c0.1-0.5,0.6-0.8,1.1-0.8
		l56.8,2.6c2.6,0,4.7-1.7,4.7-3.8s-2.2-3.8-4.8-3.8L34.4,53.1L34.4,53.1z"/>
</g>
</svg>
